# xmcd
#
# Track frame offsets:
#       150
#       30208
#       71229
#       110764
#       147784
#       183711
#       223008
#       258231
#       296331
#
# Disc length: 4509 seconds
#
# Revision: 0
# Processed by: cddbd v1.5.1PL0 Copyright (c) Steve Scherf et al.
# Submitted via: WaveLab 4.01
#
DISCID=89119b09
DTITLE=VA/ Candy Flip - Levitation
DYEAR=2005
DGENRE=Prog Trance
TTITLE0=Neo Logic/ Milky Way
TTITLE1=Parrket/ Through the Never
TTITLE2=Motion and A-Side/ Ascender
TTITLE3=Flame on Fire/ Shape Audition
TTITLE4=Ryan Halifax/ The Test
TTITLE5=Flame on Fire/ The First Ride of the Dragon
TTITLE6=Wizzy Noise/ Time Line (Vibrasphere Rmx)
TTITLE7=12 Moons/ The Collective
TTITLE8=Blue Planet Corporation/ Alidade (Wizzy Noise Rmx)
EXTD=
EXTT0=
EXTT1=
EXTT2=
EXTT3=
EXTT4=
EXTT5=
EXTT6=
EXTT7=
EXTT8=
PLAYORDER=
